<svg xmlns="http://www.w3.org/2000/svg" viewBox="0 0 64 64" role="img" aria-label="Shiftora">
  <rect width="64" height="64" rx="14" fill="#4069F0"/>
  <path d="M17 42c3.2 3 8 4.6 13.1 4.6 7.8 0 13.7-3.8 13.7-10.2 0-5.5-3.7-8.1-11.4-9.7-5.4-1.1-7.3-2-7.3-4.2 0-2.4 2.3-3.8 5.8-3.8 3.2 0 6.1 1 8.5 3l3.6-5.1c-3-2.6-7.2-4.1-12-4.1-7.5 0-13 3.9-13 10.1 0 5.7 4 8.2 11.5 9.7 5.4 1.1 7.1 2.1 7.1 4.3 0 2.3-2.3 3.8-6.4 3.8-3.7 0-7.1-1.2-9.8-3.8L17 42Z" fill="#FFFFFF"/>
  <path d="M46 18h7v28h-7V34H35v12h-7V18h7v10h11V18Z" fill="#F5C84B"/>
</svg>
